HIERARCHY
ROOT Hips
{
	OFFSET 0.000000 100.481300 0.000000
	CHANNELS 6 Xposition Yposition Zposition Xrotation Yrotation Zrotation 
	JOINT Spine
	{
		OFFSET -0.279200 12.230698 -2.892100
		CHANNELS 3 Xrotation Yrotation Zrotation
		JOINT Spine1
		{
			OFFSET -0.232667 10.192268 -1.242267
			CHANNELS 3 Xrotation Yrotation Zrotation
			JOINT Spine1_split
			{
				OFFSET -0.232667 10.192268 -1.242267
				CHANNELS 3 Xrotation Yrotation Zrotation
				JOINT Spine2
				{
					OFFSET -0.232667 10.192268 -1.242267
					CHANNELS 3 Xrotation Yrotation Zrotation
					JOINT Neck
					{
						OFFSET -0.418800 17.814194 8.416900
						CHANNELS 3 Xrotation Yrotation Zrotation
						JOINT Head
						{
							OFFSET 0.000000 7.031097 3.806800
							CHANNELS 3 Xrotation Yrotation Zrotation
							JOINT HeadTop_End
							{
								OFFSET 0.000000 24.646606 12.978600
								CHANNELS 3 Xrotation Yrotation Zrotation
								End Site
								{
									OFFSET 0.000000 0.000000 0.000000
								}
							}
						}
					}
					JOINT LeftShoulder
					{
						OFFSET 8.476499 7.247704 -3.868750
						CHANNELS 3 Xrotation Yrotation Zrotation
						JOINT LeftShoulder_split
						{
							OFFSET 8.476499 7.247704 -3.868750
							CHANNELS 3 Xrotation Yrotation Zrotation
							JOINT LeftArm
							{
								OFFSET 9.308998 -2.777710 0.208600
								CHANNELS 3 Xrotation Yrotation Zrotation
								JOINT LeftForeArm
								{
									OFFSET 29.972298 0.000000 0.000000
									CHANNELS 3 Xrotation Yrotation Zrotation
									JOINT LeftHand
									{
										OFFSET 26.026505 0.000000 0.000000
										CHANNELS 3 Xrotation Yrotation Zrotation
										JOINT LeftHandThumb1
										{
											OFFSET 12.240501 -7.147949 9.207150
											CHANNELS 3 Xrotation Yrotation Zrotation
											JOINT LeftHandThumb2
											{
												OFFSET 4.138618 -2.389435 2.389433
												CHANNELS 3 Xrotation Yrotation Zrotation
												JOINT LeftHandThumb3
												{
													OFFSET 2.726913 -1.574387 1.574386
													CHANNELS 3 Xrotation Yrotation Zrotation
													JOINT LeftHandThumb4
													{
														OFFSET 3.941010 -2.275345 2.275342
														CHANNELS 3 Xrotation Yrotation Zrotation
														End Site
														{
															OFFSET 0.000000 0.000000 0.000000
														}
													}
												}
											}
										}
										JOINT LeftHandIndex1
										{
											OFFSET 24.424698 -1.985611 5.953459
											CHANNELS 3 Xrotation Yrotation Zrotation
											JOINT LeftHandIndex2
											{
												OFFSET 6.426697 0.000000 0.000000
												CHANNELS 3 Xrotation Yrotation Zrotation
												JOINT LeftHandIndex3
												{
													OFFSET 5.337898 0.000000 0.000000
													CHANNELS 3 Xrotation Yrotation Zrotation
													JOINT LeftHandIndex4
													{
														OFFSET 4.409401 0.000000 0.000000
														CHANNELS 3 Xrotation Yrotation Zrotation
														End Site
														{
															OFFSET 0.000000 0.000000 0.000000
														}
													}
												}
											}
										}
										JOINT LeftHandMiddle1
										{
											OFFSET 23.810104 0.000000 0.000000
											CHANNELS 3 Xrotation Yrotation Zrotation
											JOINT LeftHandMiddle2
											{
												OFFSET 7.176498 0.000000 0.000000
												CHANNELS 3 Xrotation Yrotation Zrotation
												JOINT LeftHandMiddle3
												{
													OFFSET 6.774902 0.000000 0.000000
													CHANNELS 3 Xrotation Yrotation Zrotation
													JOINT LeftHandMiddle4
													{
														OFFSET 5.403328 0.000000 0.000000
														CHANNELS 3 Xrotation Yrotation Zrotation
														End Site
														{
															OFFSET 0.000000 0.000000 0.000000
														}
													}
												}
											}
										}
										JOINT LeftHandRing1
										{
											OFFSET 22.908401 -0.839279 -6.020567
											CHANNELS 3 Xrotation Yrotation Zrotation
											JOINT LeftHandRing2
											{
												OFFSET 6.337502 0.000000 0.000000
												CHANNELS 3 Xrotation Yrotation Zrotation
												JOINT LeftHandRing3
												{
													OFFSET 5.779297 0.000000 0.000000
													CHANNELS 3 Xrotation Yrotation Zrotation
													JOINT LeftHandRing4
													{
														OFFSET 4.965698 0.000000 0.000000
														CHANNELS 3 Xrotation Yrotation Zrotation
														End Site
														{
															OFFSET 0.000000 0.000000 0.000000
														}
													}
												}
											}
										}
										JOINT LeftHandPinky1
										{
											OFFSET 20.037003 -1.530319 -10.950146
											CHANNELS 3 Xrotation Yrotation Zrotation
											JOINT LeftHandPinky2
											{
												OFFSET 5.254700 0.000000 0.000000
												CHANNELS 3 Xrotation Yrotation Zrotation
												JOINT LeftHandPinky3
												{
													OFFSET 4.810204 0.000000 0.000000
													CHANNELS 3 Xrotation Yrotation Zrotation
													JOINT LeftHandPinky4
													{
														OFFSET 3.647202 0.000000 0.000000
														CHANNELS 3 Xrotation Yrotation Zrotation
														End Site
														{
															OFFSET 0.000000 0.000000 0.000000
														}
													}
												}
											}
										}
									}
								}
							}
						}
					}
					JOINT RightShoulder
					{
						OFFSET -7.570500 7.247704 -3.868750
						CHANNELS 3 Xrotation Yrotation Zrotation
						JOINT RightShoulder_split
						{
							OFFSET -7.570500 7.247704 -3.868750
							CHANNELS 3 Xrotation Yrotation Zrotation
							JOINT RightArm
							{
								OFFSET -9.308998 -2.777710 0.208500
								CHANNELS 3 Xrotation Yrotation Zrotation
								JOINT RightForeArm
								{
									OFFSET -29.972300 0.000000 0.000000
									CHANNELS 3 Xrotation Yrotation Zrotation
									JOINT RightHand
									{
										OFFSET -26.026505 0.000000 0.000000
										CHANNELS 3 Xrotation Yrotation Zrotation
										JOINT RightHandThumb1
										{
											OFFSET -12.240601 -7.148026 9.207092
											CHANNELS 3 Xrotation Yrotation Zrotation
											JOINT RightHandThumb2
											{
												OFFSET -4.138618 -2.389435 2.389433
												CHANNELS 3 Xrotation Yrotation Zrotation
												JOINT RightHandThumb3
												{
													OFFSET -2.726974 -1.574417 1.574421
													CHANNELS 3 Xrotation Yrotation Zrotation
													JOINT RightHandThumb4
													{
														OFFSET -3.941010 -2.275345 2.275343
														CHANNELS 3 Xrotation Yrotation Zrotation
														End Site
														{
															OFFSET 0.000000 0.000000 0.000000
														}
													}
												}
											}
										}
										JOINT RightHandIndex1
										{
											OFFSET -24.424698 -1.985657 5.953444
											CHANNELS 3 Xrotation Yrotation Zrotation
											JOINT RightHandIndex2
											{
												OFFSET -6.426697 0.000000 0.000000
												CHANNELS 3 Xrotation Yrotation Zrotation
												JOINT RightHandIndex3
												{
													OFFSET -5.337898 0.000000 0.000000
													CHANNELS 3 Xrotation Yrotation Zrotation
													JOINT RightHandIndex4
													{
														OFFSET -4.409401 0.000000 0.000000
														CHANNELS 3 Xrotation Yrotation Zrotation
														End Site
														{
															OFFSET 0.000000 0.000000 0.000000
														}
													}
												}
											}
										}
										JOINT RightHandMiddle1
										{
											OFFSET -23.810097 0.000000 0.000000
											CHANNELS 3 Xrotation Yrotation Zrotation
											JOINT RightHandMiddle2
											{
												OFFSET -7.176498 0.000000 0.000000
												CHANNELS 3 Xrotation Yrotation Zrotation
												JOINT RightHandMiddle3
												{
													OFFSET -6.774902 0.000000 0.000000
													CHANNELS 3 Xrotation Yrotation Zrotation
													JOINT RightHandMiddle4
													{
														OFFSET -5.403328 0.000000 0.000000
														CHANNELS 3 Xrotation Yrotation Zrotation
														End Site
														{
															OFFSET 0.000000 0.000000 0.000000
														}
													}
												}
											}
										}
										JOINT RightHandRing1
										{
											OFFSET -22.908302 -0.839325 -6.020576
											CHANNELS 3 Xrotation Yrotation Zrotation
											JOINT RightHandRing2
											{
												OFFSET -6.337502 0.000000 0.000000
												CHANNELS 3 Xrotation Yrotation Zrotation
												JOINT RightHandRing3
												{
													OFFSET -5.779297 0.000000 0.000000
													CHANNELS 3 Xrotation Yrotation Zrotation
													JOINT RightHandRing4
													{
														OFFSET -4.965698 0.000000 0.000000
														CHANNELS 3 Xrotation Yrotation Zrotation
														End Site
														{
															OFFSET 0.000000 0.000000 0.000000
														}
													}
												}
											}
										}
										JOINT RightHandPinky1
										{
											OFFSET -20.037003 -1.530334 -10.950259
											CHANNELS 3 Xrotation Yrotation Zrotation
											JOINT RightHandPinky2
											{
												OFFSET -5.254700 0.000000 0.000000
												CHANNELS 3 Xrotation Yrotation Zrotation
												JOINT RightHandPinky3
												{
													OFFSET -4.810204 0.000000 0.000000
													CHANNELS 3 Xrotation Yrotation Zrotation
													JOINT RightHandPinky4
													{
														OFFSET -3.647202 0.000000 0.000000
														CHANNELS 3 Xrotation Yrotation Zrotation
														End Site
														{
															OFFSET 0.000000 0.000000 0.000000
														}
													}
												}
											}
										}
									}
								}
							}
						}
					}
				}
			}
		}
	}
	JOINT LeftUpLeg
	{
		OFFSET 15.427100 -6.655098 0.678600
		CHANNELS 3 Xrotation Yrotation Zrotation
		JOINT LeftLeg
		{
			OFFSET 4.081073 -39.591068 13.024000
			CHANNELS 3 Xrotation Yrotation Zrotation
			JOINT LeftFoot
			{
				OFFSET -4.081074 -37.707932 -15.979700
				CHANNELS 3 Xrotation Yrotation Zrotation
				JOINT LeftToeBase
				{
					OFFSET 5.346399 -15.068900 20.645000
					CHANNELS 3 Xrotation Yrotation Zrotation
					JOINT LeftToe_End
					{
						OFFSET 2.754700 0.931300 11.300900
						CHANNELS 3 Xrotation Yrotation Zrotation
						End Site
						{
							OFFSET 0.000000 0.000000 0.000000
						}
					}
				}
			}
		}
	}
	JOINT RightUpLeg
	{
		OFFSET -15.569500 -6.655098 0.678600
		CHANNELS 3 Xrotation Yrotation Zrotation
		JOINT RightLeg
		{
			OFFSET -4.081825 -39.591045 13.023800
			CHANNELS 3 Xrotation Yrotation Zrotation
			JOINT RightFoot
			{
				OFFSET 4.081824 -37.707954 -15.979600
				CHANNELS 3 Xrotation Yrotation Zrotation
				JOINT RightToeBase
				{
					OFFSET -5.346400 -15.068900 20.645000
					CHANNELS 3 Xrotation Yrotation Zrotation
					JOINT RightToe_End
					{
						OFFSET -2.754700 0.931300 11.300900
						CHANNELS 3 Xrotation Yrotation Zrotation
						End Site
						{
							OFFSET 0.000000 0.000000 0.000000
						}
					}
				}
			}
		}
	}
}
MOTION
Frames: 5
Frame Time: 0.016667
-0.389534 95.152687 -1.917831 -3.660085 3.299955 2.346535 4.351364 -0.746715 -0.687576 1.013959 -0.170730 0.054478 0.000000 0.000000 0.000000 1.013874 -0.177047 0.069539 0.942216 -0.544782 0.126543 -6.488562 -5.987211 -1.414549 0.000000 -0.000000 -0.000000 0.674922 -2.078744 -16.856779 0.000000 0.000000 0.000000 4.778424 -6.136925 -37.933863 0.000028 -66.118936 0.000038 -4.833204 -7.576979 -60.543056 -7.220064 -16.942330 15.004570 8.348823 0.689838 4.880229 -0.062070 -18.560330 11.893752 0.000000 -0.000000 0.000001 -0.978085 -1.241633 -15.183698 1.002373 3.278817 -33.989685 0.129200 1.224849 -12.042754 -0.000001 0.000003 0.000000 0.805745 5.211338 -29.108825 1.066668 3.372073 -35.098143 0.556019 2.493056 -25.142705 -0.000003 -0.000001 0.000001 6.496551 12.626969 -37.570849 1.949517 4.363738 -48.129112 0.031838 0.610631 -5.969648 0.000002 -0.000001 0.000001 9.161891 25.680997 -47.169884 0.954734 3.207170 -33.147820 0.495751 2.360468 -23.718829 -0.000001 -0.000000 0.000001 0.088521 8.205039 21.087106 0.000000 0.000000 0.000000 -3.899872 6.709556 55.252583 -0.000010 9.850087 0.000011 33.602393 9.190944 0.661868 9.076618 11.156504 -7.011574 22.190742 -26.308857 10.012000 6.596525 -21.950669 -17.823645 0.000000 -0.000003 -0.000004 3.041022 7.562643 51.714634 1.573273 -3.491485 48.501901 0.436162 -1.969618 24.970801 -0.000001 0.000000 -0.000002 -3.185438 -4.004862 67.076849 1.304816 -3.234647 43.928304 0.443931 -1.986192 25.195659 0.000001 -0.000001 0.000000 -4.626533 -1.781852 57.138289 2.278820 -4.005238 59.262765 1.035946 -2.930428 38.931453 0.000002 -0.000003 -0.000005 -7.034698 -9.338175 44.934206 1.908695 -3.761119 53.801639 2.442838 -4.098100 61.583834 0.000001 -0.000000 -0.000002 -1.089469 8.197117 4.556976 15.224102 3.042024 0.311914 -9.713205 1.364500 -5.159617 -0.999556 -0.000003 -0.000002 -0.000000 0.000000 -0.000000 -1.399675 -11.784543 -11.253864 17.053888 -4.045478 -0.936367 -10.890210 -2.938781 9.908433 -2.518105 -0.000015 0.000000 -0.000000 0.000001 -0.000000 
-0.386067 95.153770 -1.900334 -3.660411 3.383811 2.368764 4.296209 -0.712022 -0.698901 1.003490 -0.162740 0.054478 0.000000 0.000000 0.000000 1.003402 -0.169834 0.069539 0.967347 -0.361658 0.089158 -6.296966 -5.810299 -1.351242 0.000000 0.000000 -0.000000 0.668922 -2.098532 -16.857001 0.000000 0.000000 0.000000 4.777335 -6.116302 -37.949368 0.000057 -66.118950 0.000058 -4.804801 -7.604643 -60.565371 -7.220064 -16.942330 15.004573 8.348860 0.690234 4.880273 -0.062060 -18.560339 11.893743 0.000000 0.000000 0.000002 -0.984012 -1.230244 -15.277765 0.998196 3.272619 -33.916302 0.129195 1.224837 -12.042742 0.000000 0.000001 -0.000001 0.808643 5.216536 -29.166947 1.066671 3.372083 -35.098153 0.555588 2.492103 -25.132296 -0.000005 -0.000000 0.000003 6.505263 12.626499 -37.619582 1.947865 4.362271 -48.107375 0.031990 0.612057 -5.983743 -0.000000 0.000001 -0.000001 9.177739 25.678964 -47.209909 0.954744 3.207183 -33.147799 0.495749 2.360471 -23.718819 -0.000001 -0.000001 0.000000 0.189312 8.114527 20.696783 0.000000 0.000000 0.000000 -3.948093 6.617983 55.456983 0.000002 9.661261 -0.000022 33.524710 9.281789 1.219433 8.533734 11.109513 -7.539704 22.252744 -26.276122 10.224539 6.552837 -21.210032 -17.627835 0.000001 0.000000 -0.000003 3.035206 7.424118 51.008901 1.532233 -3.454813 47.824605 0.431718 -1.960050 24.841272 0.000000 0.000000 -0.000001 -3.314725 -3.863940 66.407095 1.290213 -3.219424 43.668606 0.441274 -1.980538 25.119100 0.000003 -0.000000 -0.000001 -4.917025 -1.736446 57.961696 2.213071 -3.965492 58.316941 1.017853 -2.907926 38.576311 -0.000000 -0.000001 -0.000000 -7.357668 -8.917703 46.621058 1.809465 -3.686594 52.273617 2.264483 -3.996689 59.057313 -0.000002 -0.000000 -0.000001 -1.099192 8.214086 4.540017 15.222067 2.986042 0.278075 -9.705948 1.361093 -5.081544 -0.943208 0.000018 0.000002 -0.000000 0.000001 -0.000000 -1.351569 -11.784894 -11.280091 17.048711 -4.121019 -0.932583 -10.918099 -2.957227 9.943114 -2.518105 -0.000008 0.000000 0.000000 0.000001 0.000000 
-0.383507 95.158615 -1.881707 -3.665890 3.478041 2.397608 4.242337 -0.679911 -0.709869 0.993090 -0.154234 0.054478 0.000000 0.000000 0.000000 0.993004 -0.161422 0.069539 0.993620 -0.171604 0.051405 -6.089673 -5.592143 -1.285595 -0.000000 -0.000000 0.000000 0.669283 -2.097340 -16.856984 0.000000 0.000000 0.000000 4.776129 -6.115298 -37.967744 0.000059 -66.105248 0.000068 -4.795294 -7.620682 -60.578580 -7.220067 -16.942330 15.004575 8.343774 0.679844 4.884445 -0.062055 -18.560315 11.893769 -0.000001 0.000000 -0.000001 -0.987275 -1.223916 -15.330083 0.996339 3.269887 -33.884234 0.129196 1.224852 -12.042748 -0.000004 0.000001 -0.000001 0.810376 5.219608 -29.201582 1.066661 3.372083 -35.098139 0.555251 2.491387 -25.124644 0.000005 -0.000001 0.000001 6.508816 12.626303 -37.639410 1.946216 4.360797 -48.085669 0.032041 0.612415 -5.987215 -0.000002 -0.000001 0.000001 9.181766 25.678450 -47.220001 0.954725 3.207164 -33.147810 0.495748 2.360459 -23.718819 -0.000001 -0.000001 0.000001 0.288256 8.054237 20.313281 0.000000 0.000000 0.000000 -4.008388 6.518862 55.627168 0.000008 9.463820 -0.000036 33.489555 9.471051 1.838406 7.972944 11.044970 -8.116748 22.324031 -26.238120 10.469545 6.488871 -20.386364 -17.437526 -0.000003 -0.000001 0.000000 3.024045 7.283626 50.293579 1.491108 -3.417164 47.138486 0.428087 -1.952192 24.734675 0.000001 0.000001 0.000001 -3.452778 -3.715135 65.737046 1.275078 -3.203527 43.398564 0.438259 -1.974087 25.031521 -0.000000 -0.000001 -0.000001 -5.217646 -1.713534 58.887070 2.144047 -3.922154 57.312992 0.999413 -2.884669 38.211282 -0.000001 -0.000001 0.000001 -7.711638 -8.515080 48.478511 1.703797 -3.602531 50.611538 2.078040 -3.879106 56.343043 0.000003 0.000001 -0.000003 -1.093199 8.224261 4.510667 15.194205 2.929142 0.255646 -9.683803 1.352934 -5.031629 -0.919569 0.000009 0.000000 -0.000000 -0.000002 -0.000000 -1.289492 -11.785539 -11.310218 17.035315 -4.204197 -0.929231 -10.945225 -2.980471 9.980657 -2.518105 -0.000012 0.000000 0.000000 -0.000001 0.000000 
-0.378028 95.166306 -1.862286 -3.672863 3.582115 2.437199 4.189211 -0.648691 -0.719363 0.983113 -0.144933 0.054478 0.000000 0.000000 0.000000 0.983032 -0.152244 0.066660 1.021000 0.026481 0.013595 -5.859409 -5.331690 -1.206529 0.000000 0.000000 0.000000 0.672029 -2.087341 -16.865549 0.000000 0.000000 0.000000 4.773025 -6.120770 -37.983444 -0.000024 -66.086158 -0.000041 -4.796953 -7.633355 -60.590513 -7.220069 -16.942330 15.004573 8.332867 0.653607 4.892507 -0.061161 -18.560761 11.897666 0.000001 -0.000000 -0.000002 -0.987886 -1.222735 -15.339790 0.996459 3.270075 -33.886375 0.129297 1.225274 -12.046898 -0.000001 0.000001 0.000000 0.810709 5.220248 -29.208665 1.066682 3.372088 -35.098143 0.555014 2.490838 -25.118629 0.000002 0.000001 0.000001 6.508694 12.626305 -37.638823 1.945115 4.359799 -48.070977 0.031964 0.611799 -5.981302 -0.000001 -0.000001 -0.000000 9.177534 25.679013 -47.209366 0.954759 3.207185 -33.147813 0.495530 2.359969 -23.713735 0.000002 -0.000000 0.000000 0.391140 7.989680 19.911494 0.000000 0.000000 0.000000 -4.059860 6.438538 55.791584 0.000004 9.308322 -0.000025 33.459755 9.705517 2.456248 7.393724 10.964019 -8.735717 22.404779 -26.196654 10.745437 6.405740 -19.486738 -17.252967 -0.000001 0.000000 -0.000002 3.009646 7.138852 49.568687 1.449912 -3.378570 46.443449 0.425163 -1.945833 24.648934 -0.000002 0.000003 0.000000 -3.597551 -3.558804 65.066117 1.259527 -3.187029 43.119606 0.434890 -1.966875 24.933643 0.000001 0.000002 0.000000 -5.523627 -1.714916 59.897904 2.072300 -3.875282 56.257861 0.980677 -2.860739 37.837486 -0.000003 -0.000002 -0.000001 -8.097109 -8.141694 50.479896 1.593491 -3.509255 48.833274 1.886700 -3.744945 53.465508 0.000001 -0.000000 0.000001 -1.077555 8.228022 4.463066 15.151559 2.874330 0.240473 -9.654113 1.343852 -4.983993 -0.909058 -0.000006 0.000001 -0.000000 0.000001 -0.000000 -1.221789 -11.786609 -11.352937 17.019015 -4.294504 -0.925878 -10.972875 -3.008398 10.024229 -2.518105 -0.000010 0.000000 -0.000000 0.000001 -0.000000 
-0.369020 95.175087 -1.840942 -3.678972 3.689111 2.480894 4.135374 -0.616488 -0.724484 0.973502 -0.135125 0.054478 0.000000 0.000000 0.000000 0.973426 -0.142599 0.063642 1.049472 0.229842 -0.024775 -5.607308 -5.052334 -1.113998 0.000000 -0.000000 0.000000 0.674783 -2.075989 -16.886591 0.000000 0.000000 0.000000 4.763881 -6.120303 -37.993269 0.000002 -66.070660 -0.000005 -4.801414 -7.648564 -60.604829 -7.220067 -16.942325 15.004572 8.318181 0.616265 4.903006 -0.059598 -18.561493 11.904428 -0.000001 -0.000000 -0.000001 -0.986152 -1.226071 -15.312176 0.997836 3.272114 -33.910479 0.129404 1.225792 -12.052173 -0.000003 0.000003 -0.000001 0.809708 5.218457 -29.188605 1.066687 3.372086 -35.098156 0.554753 2.490292 -25.112722 0.000000 0.000000 0.000002 6.506822 12.626419 -37.628359 1.944987 4.359685 -48.069297 0.031849 0.610723 -5.970720 0.000001 -0.000002 -0.000000 9.169855 25.679995 -47.189978 0.954746 3.207193 -33.147820 0.495257 2.359328 -23.706745 -0.000001 -0.000000 0.000000 0.496741 7.917474 19.494031 0.000000 0.000000 0.000000 -4.102384 6.374798 55.961410 0.000000 9.187379 -0.000006 33.427683 9.942659 3.036216 6.798093 10.868259 -9.391682 22.496784 -26.157191 11.051477 6.304033 -18.518338 -17.076415 0.000001 0.000003 -0.000002 2.991395 6.988221 48.837789 1.408904 -3.339135 45.743423 0.423058 -1.941226 24.586519 0.000000 0.000003 -0.000002 -3.747456 -3.396092 64.399620 1.243928 -3.170319 42.838451 0.431396 -1.959337 24.831527 0.000001 0.000000 0.000001 -5.829320 -1.746450 61.000228 1.998245 -3.824888 55.155010 0.961847 -2.836356 37.458578 -0.000003 0.000001 -0.000002 -8.506064 -7.806778 52.630654 1.479438 -3.406342 46.942507 1.692337 -3.593116 50.429015 0.000002 0.000002 0.000001 -1.059645 8.225086 4.404874 15.108826 2.826003 0.228920 -9.626425 1.337544 -4.926722 -0.902875 0.000007 0.000001 0.000000 0.000001 0.000000 -1.151995 -11.788062 -11.403090 17.000189 -4.384820 -0.922458 -11.000597 -3.039862 10.070009 -2.518105 -0.000010 0.000000 -0.000000 0.000002 0.000000 
